<svg width="600" height="600" viewBox="0 0 600 600" fill="none" xmlns="http://www.w3.org/2000/svg">
<path d="M319.816 75.3518C319.893 82.0431 316.511 87.9802 311.398 91.5124C308.238 93.7671 304.329 95.1216 300.124 95.1216C294.26 95.1987 288.996 92.6397 285.314 88.5074C282.232 85.0481 280.277 80.4656 280.277 75.4289C280.277 64.5281 289.146 55.6591 300.047 55.582C310.947 55.582 319.816 64.4511 319.816 75.3518Z" fill="white"/>
<path d="M118.136 203.444C117.763 205.926 117.009 208.404 115.658 210.659C114.304 212.991 112.576 214.945 110.622 216.446C104.457 221.182 95.8115 222.01 88.6741 217.95C79.2008 212.463 75.9687 200.358 81.3826 190.889C86.7965 181.42 98.8976 178.184 108.371 183.675C115.512 187.734 119.118 195.703 118.136 203.444Z" fill="white"/>
<path d="M123.096 441.732C113.623 447.146 101.521 443.913 96.0346 434.517C90.5477 425.044 93.7798 412.943 103.249 407.456C110.463 403.324 119.109 404.147 125.201 408.96C127.232 410.465 128.883 412.42 130.237 414.674C131.592 417.006 132.419 419.484 132.792 421.966C133.77 429.708 130.16 437.599 123.096 441.732Z" fill="white"/>
<path d="M319.816 524.57C319.893 535.47 311.02 544.339 300.124 544.417C289.223 544.417 280.354 535.547 280.277 524.647C280.277 516.378 285.314 509.313 292.532 506.381C294.864 505.404 297.419 504.877 300.051 504.877C302.683 504.877 305.237 505.404 307.569 506.381C314.711 509.236 319.82 516.305 319.82 524.574L319.816 524.57Z" fill="white"/>
<path d="M503.913 434.818C498.499 444.291 486.398 447.523 476.924 442.109C469.783 437.973 466.174 430.081 467.155 422.339V422.262C467.528 419.78 468.283 417.303 469.637 415.044C470.991 412.712 472.719 410.834 474.674 409.257C480.838 404.52 489.484 403.693 496.621 407.829C506.095 413.243 509.327 425.344 503.913 434.818Z" fill="white"/>
<path d="M511.354 217.877C504.14 222.087 495.344 221.186 489.18 216.15C487.302 214.722 485.647 212.845 484.37 210.663C482.938 208.258 482.115 205.703 481.815 203.071C480.988 195.48 484.524 187.738 491.589 183.679C500.985 178.192 513.086 181.424 518.573 190.893C524.06 200.289 520.828 212.39 511.358 217.881L511.354 217.877Z" fill="white"/>
<path d="M404.537 265.081L489.18 216.146C487.302 214.718 485.647 212.841 484.37 210.659C482.938 208.254 482.115 205.699 481.815 203.067L399.277 250.726L311.402 91.5128C308.242 93.7676 304.333 95.1221 300.128 95.1221C294.264 95.1991 289 92.6402 285.318 88.5078L129.864 210.209L118.136 203.444C117.763 205.926 117.009 208.404 115.658 210.659C114.304 212.991 112.576 214.945 110.622 216.446L123.627 223.964L143.697 398.283L125.205 408.957C127.236 410.461 128.887 412.416 130.241 414.671C131.596 417.003 132.423 419.48 132.796 421.962L152.339 410.688L292.532 472.18V506.382C294.864 505.405 297.419 504.878 300.051 504.878C302.683 504.878 305.237 505.405 307.569 506.382V471.052L413.26 391.223L467.155 422.266C467.528 419.785 468.282 417.307 469.637 415.048C470.991 412.716 472.719 410.839 474.674 409.261L419.647 377.54L404.537 265.081ZM139.784 233.284L284.636 316.872L157.899 390.087L139.784 233.284ZM292.532 455.792L168.499 401.292L292.532 329.655V455.792ZM292.532 304.098L143.92 218.327L292.532 101.963V304.098ZM307.565 115.719L386.267 258.244L307.565 303.648V115.719ZM307.565 452.183V330.182L399.123 383.027L307.565 452.183ZM314.707 316.876L390.477 273.2L403.259 367.99L314.707 316.876Z" fill="white"/>
</svg>
